<svg xmlns="http://www.w3.org/2000/svg" viewBox="0 0 168.6 44" role="img" aria-labelledby="title" style="height:100%;width:auto;max-width:100%;"><title>Tune</title><path d="M122.115,19.568a16.938,16.938,0,0,0-33.877,0V41.642a1.112,1.112,0,0,0,1.111,1.111h5.787a1.112,1.112,0,0,0,1.111-1.111V19.568a8.929,8.929,0,1,1,17.858,0V41.642a1.112,1.112,0,0,0,1.111,1.111H121a1.112,1.112,0,0,0,1.111-1.111V19.568Z"/><path d="M4.35,3.7V9.489A1.112,1.112,0,0,0,5.461,10.6H16.153a1.112,1.112,0,0,1,1.111,1.111V41.6a1.112,1.112,0,0,0,1.111,1.111h5.787A1.112,1.112,0,0,0,25.274,41.6V11.712A1.112,1.112,0,0,1,26.385,10.6H37.077a1.112,1.112,0,0,0,1.111-1.111V3.7a1.112,1.112,0,0,0-1.111-1.111H5.461A1.112,1.112,0,0,0,4.35,3.7Z"/><path d="M46.275,25.815a16.938,16.938,0,0,0,33.877,0V3.7A1.112,1.112,0,0,0,79.04,2.591H73.254A1.112,1.112,0,0,0,72.142,3.7V25.776a8.91,8.91,0,1,1-17.82.038V3.7a1.112,1.112,0,0,0-1.111-1.111H47.424A1.112,1.112,0,0,0,46.313,3.7V25.815Z"/><path d="M147.1,10.639h15.827a1.112,1.112,0,0,0,1.111-1.111V3.7a1.112,1.112,0,0,0-1.111-1.111H146.871A16.954,16.954,0,0,0,130.124,19.53v6.247a16.954,16.954,0,0,0,16.747,16.938h16.057a1.112,1.112,0,0,0,1.111-1.111V35.855a1.112,1.112,0,0,0-1.111-1.111H147.1a8.889,8.889,0,0,1-8.623-6.63,1.108,1.108,0,0,1,1.111-1.38h23.377a1.112,1.112,0,0,0,1.111-1.111V19.76a1.112,1.112,0,0,0-1.111-1.111H139.59a1.145,1.145,0,0,1-1.111-1.38A8.923,8.923,0,0,1,147.1,10.639Z"/></svg>
