<svg version="1.1" xmlns="http://www.w3.org/2000/svg" xmlns:xlink="http://www.w3.org/1999/xlink" x="0px" y="0px"
  viewBox="0 0 276.9 44" xml:space="preserve" role="img" aria-labelledby="title"
  style="height:100%;width:auto;max-width:100%;">
    <title>Viacom</title>
    <path style="fill:inherit" d="M183.9,2.3c13.2,0,22.5,7.2,22.5,20.5c0,12.7-8.7,20.5-22.5,20.5c-13.5,0-22.5-7.4-22.5-20.5
    	C161.4,9.9,170.3,2.3,183.9,2.3z M183.9,34.8c7,0,11.2-4.8,11.2-12c0-7.6-4.4-12-11.2-12c-7.2,0-11.2,4.8-11.2,12
    	C172.7,29.7,176.6,34.8,183.9,34.8z M99.7,2.8c-1.3,0-22.1,0-22.1,0s0,1.6,0,3.1c0,2.7,1.4,5.3,5.3,5.3c1.7,0,14.1,0,14.1,0
    	c5.9,0,8,1.9,8,6.6v0.7H90c-11.1,0-15.2,5.1-15.2,12.1c0,8.5,5.7,12.2,15.2,12.2l0,0c0,0,6.2,0,9.9,0c13,0,15.8-6.5,15.8-15.1v-9.9
    	C115.7,8.5,112.3,2.8,99.7,2.8z M104.9,27.8c0,4-1.9,7.1-7.3,7.1H92c-3.9,0-6.3-1-6.3-4.3c0-3.1,2.2-4.3,6.3-4.3h12.9V27.8z
    	 M146.9,11.2c0,0,5.5,0,5.5,0c3.9,0,6.3-1.4,6.3-5V2.8H143l0,0c-13.1,0-19.4,7.7-19.4,20c0,15.4,9.6,20,19.4,20h15.6v-3.4
    	c0-3.6-2.4-5-6-5c-1.7,0-5.8,0-5.8,0c-6.2,0-12-2.2-12-11.6C134.9,14.6,139.2,11.2,146.9,11.2z M28.7,31.9c0,0-9.3-24.3-9.8-25.7
    	c-0.7-1.9-1.7-3.4-5.2-3.4h-8l16.5,40h12l17-40c0,0-5.1,0-7,0c-3,0-4.2,1.3-5,3.2L28.8,31.9H28.7z M242.8,31.5
    	c0,0-6.8-19.5-8.1-23.2c-0.8-2.5-2-5.6-7.6-5.6c-0.7,0-12.7,0-12.7,0v40h4.3c3.3,0,5.3-1.5,5.3-4.8V10h0.2l12.4,32.8h11.6L260.5,10
    	h0.2c0,0,0,28,0,28c0,2.8,1.5,4.8,5.3,4.8h5.3v-40c0,0-9.7,0-11.9,0c-4.2,0-6.8,1.2-8.1,4.9c-0.8,2.5-8.3,23.8-8.3,23.8H242.8z
    	 M56.1,2.8v35.3c0,2.8,1.6,4.7,5.2,4.7h5.6v-40H56.1z"/>
</svg>
