<svg xmlns="http://www.w3.org/2000/svg" width="359" viewBox="0 0 359 367">
    <g fill="none" fill-rule="evenodd">
        <path fill="#202020" d="M204.774.23l117.256 52.1C344.511 62.319 359 84.61 359 109.212v126.576c0 24.6-14.489 46.893-36.97 56.882l-117.256 52.1a62.244 62.244 0 0 1-50.548 0L36.97 292.67C14.489 282.681 0 260.39 0 235.788V109.212c0-24.6 14.489-46.893 36.97-56.882L154.226.23a62.244 62.244 0 0 1 50.548 0z"/>
        <path fill="#FF684F" d="M9 253h342l-7.6 16.989L179.53 345c-98.783-46.935-151.64-72.272-158.572-76.012C14.026 265.248 10.04 259.92 9 253z"/>
        <path stroke="#FF684F" stroke-width="14.508" d="M181 26.935L51.709 84.277a25.993 25.993 0 0 0-15.455 23.76v128.94a25.993 25.993 0 0 0 15.608 23.827L181 317.087l129.138-56.283a25.993 25.993 0 0 0 15.608-23.828V108.038a25.993 25.993 0 0 0-15.455-23.761L181 26.935z" opacity=".4"/>
        <path stroke="#FF684F" stroke-width="14.508" d="M180.5 11.928L45.767 71.368a41.105 41.105 0 0 0-24.513 37.608v128.048a41.105 41.105 0 0 0 24.513 37.608l134.733 59.44 134.733-59.44a41.105 41.105 0 0 0 24.513-37.608V108.976a41.105 41.105 0 0 0-24.513-37.608L180.5 11.928z" opacity=".7"/>
        <path stroke="#FF684F" stroke-width="14.364" d="M201.858 6.793a55.062 55.062 0 0 0-44.716 0l-117.256 52.1a55.062 55.062 0 0 0-32.704 50.319v126.576a55.062 55.062 0 0 0 32.704 50.319l117.256 52.1a55.062 55.062 0 0 0 44.716 0l117.256-52.1a55.062 55.062 0 0 0 32.704-50.319V109.212a55.062 55.062 0 0 0-32.704-50.319l-117.256-52.1z"/>
        <path fill="#FF684F" d="M180.462-1c29.138 12.449 43.306 20.001 42.506 22.657C217.507 39.784 200.543 53 180.462 53c-19.986 0-36.884-13.091-42.427-31.087C137.2 19.207 151.344 11.57 180.462-1z"/>
        <text fill="#1D1E1F" font-family="Castledown-Bold, Castledown" font-size="31.122" font-weight="bold" letter-spacing="2.305">
            <tspan x="105.5" y="311">VICTORY</tspan>
        </text>
        <g fill="#FF684F" fill-rule="nonzero">
            <path d="M241 100l-18.086 8.475 1.924 1.328 11.39-5.259-42.379 61.038-4.386-6.204-25.038 35.74h.077v-91.314h16.341l.616-2.17h-47.843l-.616 2.17h16.88l.615 109.796h4.028l34.914-49.805 4.412 5.948L238.46 106.1l-1 12.407 1.898 1.302zM164.25 208.907h-.35c-.075 0-.15 0-.275.021a.65.65 0 0 0-.325.107c-.1.064-.225.15-.325.278-.1.129-.2.3-.275.535h-.1V208.8h4v1.048h-.1c-.075-.235-.15-.406-.275-.535a.949.949 0 0 0-.325-.278.65.65 0 0 0-.325-.107c-.1 0-.2-.021-.275-.021h-.35v3.786h.675v.107h-2.05v-.107h.675v-3.786zm3.863-.002h-.713v-.105h1.558l1.268 2.926 1.268-2.926H173v.105h-.74v3.727h.714v.105h-2.166v-.105h.713v-3.58l-1.638 3.748-1.611-3.726v3.558h.713v.105H167.4v-.105h.713v-3.727z"/>
        </g>
    </g>
</svg>
