<svg xmlns="http://www.w3.org/2000/svg" viewBox="0 0 160 139" role="img" aria-labelledby="title" style="height:100%;width:auto;max-width:100%"><title>USA Facts</title><g shape-rendering="geometricPrecision" fill="#FFF" fill-rule="evenodd"><path d="M142.469926 62.9228642h-37.326617c-25.27763 0-37.9290868-13.3815309-47.1672102-23.1521975-5.5992099-5.9223704-10.0215309-10.5999013-15.3062716-10.5999013-5.1757037 0-8.8272593 2.6243951-13.0552099 5.6632099-6.0570864 4.3535803-13.5956543 9.7718519-28.6443457 9.7718519C.4345679 44.6058272 0 44.1712593 0 43.6355556c0-.5360988.4345679-.9702716.9702716-.9702716 14.4237037 0 21.3767901-4.997926 27.5120988-9.4068149 4.5001481-3.2343703 8.3867654-6.0282469 14.1874568-6.0282469 6.1202963 0 10.7962469 4.9457778 16.7162469 11.2071111C68.8825679 48.4817778 80.7016296 60.982321 105.143309 60.982321h37.326617c.535704 0 .970272.4341728.970272.9702716 0 .5357037-.434568.9702716-.970272.9702716"/><path d="M54.8946568 73.603437c-6.9858766 0-12.1177284-6.950321-18.0598519-14.9977284-8.3527901-11.3121975-17.8196543-24.1331358-35.60809873-24.1331358-.5357037 0-.9702716-.4341728-.9702716-.9702716 0-.5357037.4345679-.9702716.9702716-.9702716 18.76740743 0 28.97027163 13.8184692 37.16898763 24.9208889 5.6300247 7.6250864 10.4924445 14.2099753 16.498963 14.2099753 6.0080988 0 9.5119012-3.5373827 13.9484444-8.0165926 6.3004445-6.3612839 14.1416297-14.278321 32.7024198-14.278321h43.252543c.536099 0 .970272.4345679.970272.9702717 0 .5360987-.434173.9702716-.970272.9702716h-43.252543c-17.7517037 0-24.9623704 7.2801975-31.3240494 13.7035061-4.5661235 4.6099753-8.5092346 8.5914074-15.3268148 8.5914074M48.009837 131.844267l4.0248889-8.979753 4.1027161 9.212839h-8.2311111l.1035061-.233086zm8.7304692 1.621333l.0442469.098765 1.9401481 4.378865h1.6928395l-7.5705679-16.732445h-1.5778765l-7.5705679 16.732445h1.5964444l2.0088889-4.47763h9.4364445zM20.8131951 121.331437h-1.580247v9.684938c0 1.860741-.4713086 3.299951-1.4008888 4.277729-.9335309.982123-2.2360494 1.479901-3.872 1.479901-1.669926 0-2.9937778-.519111-3.9352099-1.543111-.93471607-1.018469-1.40958026-2.477037-1.40958026-4.335408v-9.564049H7.03344198v9.684938c0 2.284247.62814814 4.073877 1.86469135 5.317531 1.23693827 1.244445 2.92306177 1.875358 5.01372837 1.875358 2.1060741 0 3.801284-.634864 5.0382223-1.886024 1.2365432-1.253136 1.8631111-3.087408 1.8631111-5.451062v-9.540741zM37.5033284 136.902993c1.0358518-.842667 1.5612839-1.975704 1.5612839-3.368297 0-1.233777-.4242963-2.221432-1.2618271-2.936494-.8529383-.727308-2.2411852-1.305679-4.1272099-1.719308-1.830321-.395062-3.0443457-.83279-3.7088395-1.337284-.6771358-.514766-1.0208395-1.234963-1.0208395-2.14005 0-.839901.3551605-1.547456 1.0563951-2.102518.6870123-.545975 1.6015802-.822519 2.7156543-.822519 1.7370864 0 3.3718518.594963 4.8612345 1.768692l.9121976-1.210864c-1.6612346-1.291062-3.5863704-1.946074-5.7240494-1.946074-1.5676049 0-2.8752593.427456-3.8881975 1.270123-1.0054321.833185-1.5146667 1.914074-1.5146667 3.212642 0 1.313185.4321975 2.332444 1.2835556 3.030518.8715061.713877 2.3091358 1.293038 4.2745679 1.720494 1.7509135.363852 2.9131851.785778 3.552395 1.290272.6518519.514765.9829136 1.226272.9829136 2.114765 0 .906272-.371358 1.654914-1.1053827 2.224593-.7174321.561778-1.6711111.845827-2.8345679.845827-1.1662222 0-2.2261729-.199506-3.1521976-.594173-.8829629-.374123-1.7710617-.955654-2.6401975-1.72958l-.972642 1.14884c1.9480494 1.701135 4.1991112 2.56316 6.6915556 2.56316 1.6474074 0 3.0127407-.431802 4.0588642-1.282765M71.1995259 124.448672v3.512493h7.871605v3.299161h-7.871605v6.387358h-3.6298271v-16.498173h12.5625679v3.299161M90.5047704 125.391289l-2.1918025 5.350321h4.3836049l-2.1918024-5.350321zm4.9963456 12.256395l-1.5083456-3.700148h-6.976l-1.5083457 3.700148h-3.7001482l7.0704198-16.615506h3.3465679l7.0708148 16.615506h-3.794963zM110.587812 137.929877c-4.856098 0-8.461432-3.747556-8.461432-8.484741v-.047013c0-4.690172 3.535013-8.532148 8.602074-8.532148 3.111111 0 4.973432 1.037037 6.504692 2.545778l-2.309136 2.663901c-1.272099-1.155555-2.568691-1.861926-4.218864-1.861926-2.78163 0-4.784198 2.309136-4.784198 5.138173v.046222c0 2.829037 1.956741 5.185581 4.784198 5.185581 1.885234 0 3.04-.753778 4.336592-1.932642l2.310321 2.333629c-1.69758 1.814914-3.582815 2.945186-6.764247 2.945186M129.798519 124.495921v13.151605h-3.629828v-13.151605h-5.020839v-3.346173h13.670321v3.346173M145.191546 137.883812c-2.498371 0-5.02084-.872296-7.000494-2.640197l2.14558-2.569482c1.484247 1.225877 3.04 2.003753 4.925235 2.003753 1.485432 0 2.380642-.588642 2.380642-1.555753v-.047012c0-.919704-.565729-1.391012-3.32326-2.097383-3.323259-.849382-5.468049-1.767506-5.468049-5.043753v-.047012c0-2.993778 2.403951-4.973827 5.774617-4.973827 2.403556 0 4.454716.754963 6.128198 2.098568l-1.885235 2.733432c-1.462518-1.012939-2.899358-1.626074-4.29037-1.626074-1.390617 0-2.121482.636049-2.121482 1.438024v.046223c0 1.084444.707556 1.438024 3.559507 2.168888 3.346567.872297 5.231802 2.074074 5.231802 4.948939v.047407c0 3.276247-2.49837 5.115259-6.056691 5.115259"/><path d="M4.78818765 23.9047506c19.96681485.3302716 28.84582715 8.9114074 37.89155555 18.1965432C52.7712 36.7497877 61.6269037 30.3169975 69.1974716 24.8181333c1.6466173-1.1966419 3.2347654-2.3502222 4.7664198-3.4421728-4.0584692-4.3018272-8.8177778-7.3497284-16.7723457-7.3497284l-23.2628148.0817778c-8.8193581-.274963-10.5161482-.5412346-12.8651852-.9102222-1.4123457-.2212346-3.0135309-.4724939-6.6374321-.7838025-2.495605-.2145185-2.9977284.1520988-3.0727901.2275555-.0900741.0908642-.0497778.5258272-.0201482.8438519.1066667 1.1401481.3045926 3.2624197-3.3236543 3.7475555-1.1077531.1481482-2.46755557 3.3817284-3.22133335 6.6718025M76.8877432 21.705837c1.2582716 1.465679 2.4600494 3.013926 3.6756543 4.5803457 6.6358519 8.5526914 13.497284 17.3965432 32.5756045 17.3965432l16.780247.0169877c.068741-.0154074.139852-.0229136.212149-.0229136h14.591604c-.214518-1.2792099-.485925-3.5164444-.451555-6.5161481.085728-7.4287408 2.552099-8.9157531 4.728099-10.2273581 1.56721-.9449876 2.705777-1.6308148 2.918716-4.8466173-.948543-4.1888395 1.899852-7.1695802 3.986568-9.3522963 1.082864-1.1334321 2.202469-2.304395 2.105284-3.00365427-.06321-.45511112-.696889-.91535803-1.216791-1.22153087-2.239604-1.31753086-2.784-3.17274074-3.181827-4.5274074-.376098-1.28237038-.560197-1.7125926-1.299358-1.90064198-1.123555-.28641975-2.242765-.0754568-2.921876.54953086-.293926.27101235-.620642.7320494-.509235 1.39180247.709531 4.20187656-.950913 9.7303704-4.871506 11.3355062-.051358.0209383-.104691.0379259-.15921.0497778-.03121.0071111-3.160099.7146666-5.054025 2.169679-1.396543 1.2199506-2.471901 3.4319012-3.831703 6.2281481-.44642.9173334-.907457 1.8666667-1.423408 2.8685432-2.141234 4.1619753-8.827259 11.065284-15.315358 8.9627655-2.814419-.927605-5.389827-4.4819753-7.880691-7.9194074-.712691-.9840988-1.386272-1.913284-2.060247-2.7776791-.069531-.0892839-.122074-.1884444-.156839-.2927407-4.082173-5.2021728-8.9726425-10.6619259-15.4034573-10.6619259-4.0118518 0-9.3274074 3.1604938-15.8368395 7.7206913M66.3937185 88.2484543c.2133334 0 .4274568.0098766.6403951.0304198 1.561679.1501234 2.9100247.8418765 3.7965432 1.9484444.4211358.5258272.882963 1.062321 1.3293827 1.5814321 1.4403951 1.6730864 2.9293827 3.4038519 3.6950124 5.4372346 1.0417777 2.7693828 3.0889876 3.9727408 5.8417777 4.9272098.2042469.071111.4167902.16.6340741.252445.9971358.423506 1.261037.446419 1.5687901.135506.1169383-.190025-.1236543-1.042568-.2259753-1.40642-.0331852-.117728-.0659753-.233482-.096-.346074-1.2377284-4.6281483.748642-8.9244446 4.8300247-10.4481977 1.0405926-.3887407 2.0472099-1.1768889 3.1130864-2.0108642 1.7876544-1.3997037 3.8111605-2.9835061 6.4833581-2.9088395.6897777.019358 1.3159506.0485926 1.8919506.0750617 2.9526917.1359013 4.2990617.197926 6.3356047-1.2132345 4.404148-3.0530371 15.015111-5.6497778 22.681284-2.3600988 2.81205 1.2069136 4.28405 2.8626173 5.082074 5.7145679.936692 3.3465679 4.843852 7.4488889 6.921087 8.4756543.838716.4148148 1.581037.5337284 1.985975.3180247.250074-.134321.408494-.448.470518-.9331358.172642-1.3451852.079013-4.3891358-1.512296-6.2874074-7.610864-9.0773333-7.584395-11.4737778-6.827457-15.6215308.485136-2.6575803 1.123951-3.4840494 2.182716-4.8529383.036346-.0474074.073482-.0952099.111013-.1438025l-7.621926-.0039506c-.061235 0-.122074-.0055309-.182519-.0173827l-.075456-.0142222H100.80399c-27.3892344 0-41.0623209-7.8696297-51.0198517-16.7466667-9.3017284 6.4035555-21.9286914 12.9611852-42.04958028 13.260642C11.4098173 69.4510222 23.4481383 81.8950716 41.1907556 81.9792198c.4523456.0075061.8999506-.0039507 1.3530864-.0079013 3.4860247-.0272592 7.0960987-.0600494 9.0785185 1.817679.6637037.6285432 1.3009383 1.1085432 1.9168395 1.5723457 1.0725926.8079012 2.0859259 1.5711605 3.0775309 2.9479506 1.018074 1.413926 2.0649876 2.1953581 3.1111111 2.3225679.973037.1208889 2.0476049-.3192098 3.2023703-1.3001481.8027655-.6818766 2.1139754-1.0832593 3.4635062-1.0832593m17.0789136 16.4799997c-.7288889 0-1.4095802-.28879-1.9065679-.500148-.1758025-.073876-.3464691-.147753-.5112099-.204642-2.8325926-.982518-5.645037-2.39921-7.0332839-6.087506-.6427655-1.7094321-2.0167902-3.3058765-3.3461729-4.8501728-.4570864-.531358-.9303703-1.081284-1.3732345-1.6339753-.7083457-.8845432-1.7260247-1.1531852-2.4553087-1.2235062-1.1480494-.109037-2.201679.2164938-2.6488889.5961482-1.5885432 1.3495308-3.1703703 1.939753-4.7067654 1.7517037-1.6114568-.1963457-3.1130864-1.2468149-4.4638025-3.1225679-.8177777-1.1358025-1.6742716-1.7809383-2.6662716-2.528-.659358-.4965926-1.3416296-1.0101729-2.0851358-1.7145679-1.4091852-1.3337284-4.614321-1.3084445-7.7155555-1.2811852-.4594568.0039506-.9248395.0019753-1.3748148.0075061-6.4809877-.0308148-16.3587161-1.7276049-26.6338766-9.6375308-6.131358-4.7194074-9.459358-9.3688889-9.59841974-9.5644445-.20306173-.2864197-.23703704-.6589629-.09007408-.9777777.14735803-.3184198.454321-.5337284.80395062-.5645433l.5420247-.0474074c.02804937-.0023703.05649382-.0035555.08533332-.0035555 20.10469138 0 32.73244448-6.3597037 42.00138268-12.6708148-2.1199012-1.977284-4.0825679-3.9861729-5.997037-5.9535803-11.8155062 6.0946173-25.2985679 10.6611358-40.41560493 10.6611358-.5408395 0-.97896297-.4381234-.97896297-.9789629 0-.5412346.43812346-.9793581.97896297-.9793581 14.49797533 0 27.51407403-4.3354074 38.98113583-10.176-9.1271111-9.3495308-17.5577284-17.1911111-37.27683954-17.1911111-.29076543 0-.56651852-.1295802-.75219753-.3527901-.18646913-.2232099-.26350617-.5179259-.21096296-.8035556.38558024-2.0973827 1.89471605-8.9734321 5.12553086-9.4056296 1.76276543-.2354568 1.72760494-.6135308 1.6331852-1.6244938-.0651852-.7024198-.15525927-1.6647901.58034567-2.4051358.7676049-.7731358 2.1538765-1.011358 4.6297284-.7992099 3.692642.3168395 5.3297778.5740247 6.7741234.8003951 2.278321.3575308 3.9249383.6162963 12.588247.8869136l23.2327901-.0821729c8.7944691 0 14.0436543 3.5061729 18.3865679 8.1675062 6.8902716-4.8339753 12.5736296-8.2085926 17.1496296-8.2085926 7.4066173 0 12.7237533 6.009679 17.1259263 11.6432593.071111.0908641.124444.192.15921.2982716.638024.8288395 1.289481 1.728 1.921185 2.5999012 2.200494 3.0372346 4.694913 6.4790123 6.903703 7.206716 5.293037 1.7137778 11.147457-4.4653827 12.965136-7.9968395.505284-.9825185.962371-1.9211852 1.403655-2.829037 1.464493-3.0115556 2.621234-5.3902222 4.331851-6.8701235.013037-.0114568.02647-.0221234.040297-.0331851 2.070913-1.6047408 5.180049-2.3920988 5.761185-2.5295803 2.838518-1.2262716 4.182913-5.79358024 3.613234-9.1674074-.198321-1.1725432.207408-2.3237531 1.113679-3.15812346 1.160692-1.06982716 2.974815-1.45422222 4.732445-1.00780247 1.882469.48 2.313876 1.95041976 2.694716 3.2474074.372148 1.26854322.724148 2.46637038 2.295309 3.39081483 1.31674.77471605 2.024296 1.63792592 2.163753 2.63980247.227555 1.63713583-1.095902 3.02261723-2.629136 4.62617283-1.996642 2.0894815-4.260346 4.4574815-3.465877 7.6811852.023704.0944197.032395.192.02726.2891852-.247309 4.3685926-2.172445 5.5292839-3.87121 6.5532839-1.906963 1.1492346-3.70805 2.2348642-3.781136 8.5720494-.051358 4.4938272.628543 7.2019753.635654 7.2288395.075062.2927408.010667.6048395-.175012.8442469-.185284.2386173-.470914.3792593-.773531.3792593h-15.52c-.068741.0154074-.139457.0229136-.212148.0229136l-17.046914-.0169877c-20.0363454 0-27.5196047-9.645037-34.1218763-18.1542716-1.2551111-1.6173827-2.4726913-3.1865679-3.7337284-4.646321-1.5794567 1.1251358-3.2240987 2.3201976-4.9335308 3.5618766-7.5085432 5.4542222-16.262321 11.8131358-26.2423704 17.1646419 1.8765432 1.9267161 3.7866667 3.8680494 5.8326914 5.7631605 1.7734321-1.254321 3.4220247-2.4916543 4.9805432-3.6602469 6.0444444-4.5353086 10.8195555-8.1169383 16.3512099-8.1169383 5.2594567 0 8.8205432 3.116247 12.9445925 6.7239507 5.5695803 4.8734814 12.5013334 10.9388642 26.6437529 10.9388642h33.008198c.540839 0 .978963.4381234.978963.9789629 0 .5412346-.438124.9793581-.978963.9793581h-33.008198c-14.8780245 0-22.1171356-6.3336297-27.9336294-11.4232099-3.9841975-3.4860247-7.1316543-6.239605-11.654716-6.239605-4.8786173 0-9.4230124 3.4093828-15.1762963 7.7254321-1.4676544 1.1010371-3.0147161 2.2613334-4.6668642 3.4405926 3.4275555 3.0277531 7.2758518 5.8951111 11.9778765 8.3429136 9.8208395 5.1124938 22.054321 7.5978272 37.3985184 7.5978272h28.734815c.06163 0 .122864.0059259.182914.0173827l.076246.0142222 9.337679.0047407c.069926 0 .139457.0075062.207408.0225186l.108247.0233086c.319605.0691358.583111.2927407.70321.5965432.120098.3038025.080987.6475062-.104297.9161482-.503308.729679-.936691 1.2902716-1.285135 1.741037-.994766 1.2855309-1.406025 1.817679-1.805433 4.006321-.616691 3.3761975-.956049 5.2361481 6.401581 14.0116543 2.023111 2.413037 2.180345 6.034963 1.95437 7.7945679-.183704 1.4309136-.910617 2.1009383-1.488197 2.4102716-.98963.5297778-2.330865.4278519-3.779161-.2887901-2.413432-1.1930864-6.810864-5.6719012-7.93916-9.7031111-.634865-2.2692346-1.710618-3.4733827-3.968396-4.4424692-6.758321-2.899358-16.665679-.6909629-20.792888 2.1696791-2.581334 1.7892345-4.448791 1.7039012-7.5417288 1.5600987-.5657284-.026074-1.1808395-.0541234-1.8579753-.0738765-1.964642-.0592593-3.5448889 1.1820247-5.2199506 2.4932345-1.1361976.889284-2.3111111 1.8089877-3.6353581 2.303605-3.6175802 1.350716-4.4140246 5.1496296-3.6231111 8.107457.0276544.103901.0580741.211358.0884939.32.2824691 1.001086.6696296 2.371555-.2674568 3.316938-.5882469.593778-1.2191605.788938-1.8180741.788938"/></g></svg>