<svg xmlns="http://www.w3.org/2000/svg" viewBox="0 0 216.252 42.75" role="img" aria-labelledby="title" style="height:100%;width:auto;max-width:100%;"><title>logo-zillow</title><path d="M13.286,22.813c-2.584.379-3.722.528-7.254,1.28l4.226-4.344c2.809-1.28,10.674-3.669,18.207-5.429,0,0-14.479,13.365-18.5,17.507ZM28.322,5.365c-2.27,1.055-8.807,6.1-12.327,8.754,4.285-1.428,14.58-3.71,19.854-3.835C34.2,9.122,29.573,5.975,28.322,5.365Zm8.511,5.607S24.055,23.808,22.052,25.651a75.74,75.74,0,0,1,16.9-3.378,28.279,28.279,0,0,1,1.209-3.088l6.762-.676S41.788,14.355,36.833,10.971ZM7.769,37.961a111.647,111.647,0,0,1,27.879-5.98c.273-1.067,1.659-4.647,1.914-5.619a86.074,86.074,0,0,0-28.1,6.845Zm81.6,2.865H66.24V35.6L80.221,11.593a25.948,25.948,0,0,0,1.558-3.024s-.811-.066-3.05-.066h-11.4l1.653-6.181H91.146V7.7L77.058,32.355c-.8,1.332-1.383,2.409-1.383,2.409s1.648-.013,3.14-.013H91.286l-1.919,6.074ZM99.745,13.717a4.4,4.4,0,0,1-4.37-4.423A4.456,4.456,0,0,1,99.848,4.87a4.356,4.356,0,0,1,4.318,4.424,4.41,4.41,0,0,1-4.421,4.423ZM96.174,40.882l.012-23.994,7.114-1.595.015,25.588Zm14.163-.074h7.3l-.052-39.414-7.3,1.651.052,37.763Zm14.188,0h7.3l-.049-39.414-7.3,1.651.052,37.763Zm68.542.017h-6.554l-2.451-9.376c-.585-2.186-1.227-4.8-1.543-6.61-.213-1.279-.267-1.651-.428-2.716a35.088,35.088,0,0,1-.64,3.514c-.531,2.348-1.706,7.038-2.345,9.594l-1.384,5.594h-6.663l-7.6-27.285h7.288l2.176,10.181c.691,3.144,1.541,8.474,1.541,8.474a87.818,87.818,0,0,1,1.974-9.486L179,13.544h6.715l2.185,9.007c1.227,5.062,2.023,9.645,2.023,9.645.161-1.174.746-5.436,1.494-8.9l2.077-9.752h7.352l-7.778,27.282Zm-40.385-21.1a3.908,3.908,0,0,0-6.767,1.332,19.5,19.5,0,0,0-.747,6.075,19.308,19.308,0,0,0,.906,6.875,3.95,3.95,0,0,0,3.623,2.239c3.09,0,4.423-2.771,4.423-9.22,0-3.679-.478-6.076-1.438-7.3Zm5.807,17.906c-2.077,2.346-4.8,3.781-9.005,3.781-7.406,0-12.255-5.539-12.255-14.118s4.9-14.283,12.255-14.283a11.43,11.43,0,0,1,9.273,4.1c2.186,2.558,3.145,5.541,3.145,9.964,0,4.69-1.065,7.887-3.412,10.552ZM210.07,3.851h.355c.574,0,.789.206.789.6a.633.633,0,0,1-.178.469c-.116.121-.29.168-.628.168h-.338V3.851Zm1.255,3.371h.768l-.571-.936a3.024,3.024,0,0,0-.6-.777.983.983,0,0,0,.966-1.067,1.1,1.1,0,0,0-1.263-1.115h-1.188V7.222h.635V5.538a.349.349,0,0,1,.255.122,4.291,4.291,0,0,1,.663.955l.337.608Zm-.776-4.849a2.828,2.828,0,0,1,2.778,2.912,2.778,2.778,0,1,1-5.549,0,2.814,2.814,0,0,1,2.771-2.912Zm0,6.4A3.484,3.484,0,1,0,207.1,5.285a3.465,3.465,0,0,0,3.447,3.483Z"/></svg>
