<?xml version="1.0" encoding="utf-8"?>
<!-- Generator: Adobe Illustrator 23.0.3, SVG Export Plug-In . SVG Version: 6.00 Build 0)  -->
<svg version="1.1" id="Layer_1" xmlns="http://www.w3.org/2000/svg" xmlns:xlink="http://www.w3.org/1999/xlink" x="0px" y="0px"
	 viewBox="0 0 260 30" style="width: auto;height: 100%;enable-background:new 0 0 260 30;" xml:space="preserve">
<style type="text/css">
	.st0{fill:none;}
	.st1{font-family:'Castledown-Heavy';}
	.st2{font-size:16px;}
</style>
<title>Formidable Open Source</title>
<g>
	<g>
		<g>
			<path d="M12.6,8.1c0-0.3,0.1-0.4,0.4-0.4h9.6c0.3,0,0.4,0.1,0.4,0.4v1.4c0,0.2-0.1,0.3-0.3,0.3H15v4.3h6.1c0.3,0,0.4,0.1,0.4,0.4
				v1.3c0,0.3-0.1,0.4-0.4,0.4H15v6.3c0,0.3-0.1,0.4-0.4,0.4H13c-0.3,0-0.4-0.1-0.4-0.4L12.6,8.1L12.6,8.1z"/>
			<path d="M22.9,17.9c0-3.3,2.3-5.4,5.4-5.4s5.4,2.1,5.4,5.4c0,3.6-2.5,5.4-5.4,5.4S22.9,21.5,22.9,17.9z M31.3,17.9
				c0-2.2-1.4-3.5-3.1-3.5c-1.7,0-3.1,1.3-3.1,3.5c0,2,1.1,3.4,3.1,3.4S31.3,20,31.3,17.9z"/>
			<path d="M35.5,13.2c0-0.3,0.1-0.4,0.4-0.4h1.4c0.3,0,0.4,0.1,0.4,0.4v0.9c0.7-0.9,1.8-1.6,3.4-1.6c2,0,3.2,1.2,3.2,3.1
				c0,0.3-0.2,0.4-0.4,0.4h-1.4c-0.2,0-0.3-0.1-0.4-0.4c-0.1-0.7-0.6-1.2-1.5-1.2c-0.9,0-1.6,0.6-2.1,1.3c-0.5,0.7-0.8,1.5-0.8,2.8
				v4.1c0,0.3-0.1,0.4-0.4,0.4H36c-0.3,0-0.4-0.1-0.4-0.4L35.5,13.2L35.5,13.2z"/>
			<path d="M45.9,13.2c0-0.3,0.1-0.4,0.4-0.4h1.4c0.3,0,0.4,0.1,0.4,0.4v0.9c0.7-1,1.6-1.6,3.1-1.6c1.3,0,2.2,0.5,2.6,1.5
				c0.7-0.8,1.8-1.5,3.3-1.5c1.8,0,3.1,1,3.1,3.1v7.1c0,0.3-0.1,0.4-0.4,0.4h-1.4c-0.3,0-0.4-0.1-0.4-0.4v-6.8
				c0-0.9-0.4-1.4-1.3-1.4c-0.7,0-1.3,0.3-1.8,0.9c-0.6,0.7-0.8,1.3-0.8,2.4v4.9c0,0.3-0.1,0.4-0.4,0.4h-1.4c-0.3,0-0.4-0.1-0.4-0.4
				v-6.8c0-0.9-0.4-1.4-1.3-1.4c-0.6,0-1.3,0.4-1.7,0.9c-0.5,0.6-0.7,1-0.7,2.2v5.1c0,0.3-0.1,0.4-0.4,0.4h-1.4
				c-0.3,0-0.4-0.1-0.4-0.4L45.9,13.2L45.9,13.2z"/>
			<path d="M63.8,8.1c0.8,0,1.5,0.7,1.5,1.5c0,0.8-0.7,1.5-1.5,1.5c-0.8,0-1.5-0.7-1.5-1.5C62.3,8.7,63,8.1,63.8,8.1z M62.7,13.2
				c0-0.3,0.1-0.4,0.4-0.4h1.4c0.3,0,0.4,0.1,0.4,0.4v9.5c0,0.3-0.1,0.4-0.4,0.4h-1.4c-0.3,0-0.4-0.1-0.4-0.4V13.2z"/>
			<path d="M75.2,22.2c-0.9,0.7-1.6,1.1-3.2,1.1c-2.6,0-4.8-1.8-4.8-5.4c0-3.4,2.3-5.4,5.1-5.4c1.3,0,2.3,0.4,2.9,1.1v-6
				c0-0.3,0.1-0.4,0.4-0.4H77c0.3,0,0.4,0.1,0.4,0.4v15c0,0.3-0.1,0.4-0.4,0.4H76c-0.3,0-0.5-0.1-0.6-0.4L75.2,22.2z M75.2,17.1
				c0-0.7-0.1-1.1-0.6-1.6c-0.5-0.6-1.2-1-2.1-1c-1.7,0-2.9,1.3-2.9,3.5c0,2,1.1,3.4,2.9,3.4c1,0,1.8-0.4,2.2-1
				c0.4-0.5,0.5-1,0.5-1.7L75.2,17.1L75.2,17.1z"/>
			<path d="M88,22.1c-0.9,0.8-1.7,1.2-3.3,1.2c-2.8,0-5.2-1.8-5.2-5.4c0-3.4,2.4-5.4,5.3-5.4c1.6,0,2.6,0.6,3.2,1.2v-0.6
				c0-0.3,0.1-0.4,0.4-0.4h1.4c0.3,0,0.4,0.1,0.4,0.4v9.5c0,0.3-0.1,0.4-0.4,0.4h-1.1c-0.3,0-0.5-0.1-0.6-0.4L88,22.1z M88,17
				c0-0.7-0.2-1.1-0.6-1.6c-0.5-0.5-1.2-0.9-2.3-0.9c-1.8,0-3.2,1.3-3.2,3.5c0,2.1,1.3,3.4,3.2,3.4c1.1,0,2-0.6,2.4-1.1
				c0.4-0.5,0.5-0.9,0.5-1.7V17z"/>
			<path d="M92.7,7.7c0-0.3,0.1-0.4,0.4-0.4h1.4c0.3,0,0.4,0.1,0.4,0.4v6.6c0.8-1,2.1-1.8,3.7-1.8c3,0,4.5,2,4.5,5.4
				c0,3.1-1.9,5.4-5.1,5.4c-1.3,0-2.3-0.3-3.1-0.9v0.2c0,0.3-0.1,0.4-0.4,0.4h-1.4c-0.3,0-0.4-0.1-0.4-0.4V7.7z M95,19.6
				c0,0.5,0.3,0.8,0.6,1c0.7,0.5,1.5,0.7,2.2,0.7c2,0,3.1-1.5,3.1-3.5c0-2.3-1.1-3.4-2.6-3.4c-1.4,0-2.3,1-2.8,1.7
				c-0.3,0.5-0.4,0.9-0.4,1.7L95,19.6L95,19.6z"/>
			<path d="M105.1,7.7c0-0.3,0.1-0.4,0.4-0.4h1.4c0.3,0,0.4,0.1,0.4,0.4v12.6c0,0.8,0.4,1.1,0.9,1.1c0.5,0,0.7-0.2,0.9-0.2
				c0.1,0,0.2,0.1,0.2,0.3v1.3c0,0.2-0.1,0.3-0.2,0.3c-0.4,0.1-1,0.2-1.5,0.2c-1.2,0-2.5-0.7-2.5-2.5L105.1,7.7L105.1,7.7z"/>
			<path d="M120.2,20.9c0.1,0.1,0.1,0.2,0.1,0.2s0,0.2-0.1,0.3c-1.4,1.4-2.5,1.9-4.5,1.9c-2.8,0-5.4-1.9-5.4-5.4
				c0-3.3,2.4-5.4,5.3-5.4c3.5,0,5.2,2.7,5.2,5.3v0.4c0,0.3-0.1,0.4-0.4,0.4h-7.8c0.3,1.7,1.5,2.7,3.2,2.7c1.5,0,2.3-0.6,2.9-1.3
				c0.1-0.1,0.2-0.2,0.3-0.2c0.1,0,0.2,0,0.3,0.2L120.2,20.9z M118.5,16.8c-0.4-1.6-1.6-2.3-2.9-2.3c-1.4,0-2.7,0.9-3.1,2.3H118.5z"
				/>
		</g>
		<g>
			<path d="M120.7,13.2h0.2c0,0.2,0.1,0.2,0.3,0.2c0.2,0,0.2-0.1,0.2-0.2c0-0.1-0.1-0.1-0.3-0.2c-0.2-0.1-0.3-0.1-0.3-0.3
				c0-0.2,0.2-0.3,0.4-0.3c0.2,0,0.4,0.1,0.4,0.3h-0.2c0-0.1-0.1-0.2-0.2-0.2c-0.1,0-0.2,0.1-0.2,0.2c0,0.1,0.1,0.1,0.2,0.2
				c0.3,0.1,0.4,0.1,0.4,0.3c0,0.2-0.2,0.3-0.4,0.3C120.9,13.6,120.7,13.5,120.7,13.2z"/>
			<path d="M121.8,12.5h0.3l0.3,0.7c0.1,0.2,0.1,0.2,0.1,0.2h0c0,0,0-0.1,0.1-0.2l0.3-0.7h0.2v1.1h-0.2l0-0.9h0c0,0,0,0.1-0.1,0.2
				l-0.3,0.7h-0.2l-0.3-0.7c-0.1-0.1-0.1-0.2-0.1-0.2h0v0.9h-0.2L121.8,12.5L121.8,12.5z"/>
		</g>
	</g>
</g>
<rect x="132" y="10" class="st0" width="126" height="25"/>
<text transform="matrix(1 0 0 1 132 21.5195)" class="st1 st2">OPEN SOURCE</text>
</svg>
