<?xml version="1.0" encoding="utf-8"?>
<!-- Generator: Adobe Illustrator 23.0.3, SVG Export Plug-In . SVG Version: 6.00 Build 0)  -->
<svg version="1.1" id="Layer_1" xmlns="http://www.w3.org/2000/svg" xmlns:xlink="http://www.w3.org/1999/xlink" x="0px" y="0px"
	 viewBox="0 0 126 30" style="fill:#fff;width: auto;height: 100%;enable-background:new 0 0 126 30;" xml:space="preserve">
<title>Formidable</title>
<g>
	<g>
		<g>
			<path d="M7.8,8.9c0-0.3,0.1-0.4,0.4-0.4h9.6c0.3,0,0.4,0.1,0.4,0.4v1.4c0,0.2-0.1,0.3-0.3,0.3h-7.7V15h6.1c0.3,0,0.4,0.1,0.4,0.4
				v1.3c0,0.3-0.1,0.4-0.4,0.4h-6.1v6.3c0,0.3-0.1,0.4-0.4,0.4H8.3c-0.3,0-0.4-0.1-0.4-0.4L7.8,8.9L7.8,8.9z"/>
			<path d="M18.1,18.7c0-3.3,2.3-5.4,5.4-5.4s5.4,2.1,5.4,5.4c0,3.6-2.5,5.4-5.4,5.4S18.1,22.3,18.1,18.7z M26.6,18.8
				c0-2.2-1.4-3.5-3.1-3.5c-1.7,0-3.1,1.3-3.1,3.5c0,2,1.1,3.4,3.1,3.4S26.6,20.8,26.6,18.8z"/>
			<path d="M30.8,14c0-0.3,0.1-0.4,0.4-0.4h1.4c0.3,0,0.4,0.1,0.4,0.4v0.9c0.7-0.9,1.8-1.6,3.4-1.6c2,0,3.2,1.2,3.2,3.1
				c0,0.3-0.2,0.4-0.4,0.4h-1.4c-0.2,0-0.3-0.1-0.4-0.4c-0.1-0.7-0.6-1.2-1.5-1.2c-0.9,0-1.6,0.6-2.1,1.3c-0.5,0.7-0.8,1.5-0.8,2.8
				v4.1c0,0.3-0.1,0.4-0.4,0.4h-1.4c-0.3,0-0.4-0.1-0.4-0.4L30.8,14L30.8,14z"/>
			<path d="M41.1,14c0-0.3,0.1-0.4,0.4-0.4h1.4c0.3,0,0.4,0.1,0.4,0.4v0.9c0.7-1,1.6-1.6,3.1-1.6c1.3,0,2.2,0.5,2.6,1.5
				c0.7-0.8,1.8-1.5,3.3-1.5c1.8,0,3.1,1,3.1,3.1v7.1c0,0.3-0.1,0.4-0.4,0.4h-1.4c-0.3,0-0.4-0.1-0.4-0.4v-6.8
				c0-0.9-0.4-1.4-1.3-1.4c-0.7,0-1.3,0.3-1.8,0.9c-0.6,0.7-0.8,1.3-0.8,2.4v4.9c0,0.3-0.1,0.4-0.4,0.4h-1.4c-0.3,0-0.4-0.1-0.4-0.4
				v-6.8c0-0.9-0.4-1.4-1.3-1.4c-0.6,0-1.3,0.4-1.7,0.9c-0.5,0.6-0.7,1-0.7,2.2v5.1c0,0.3-0.1,0.4-0.4,0.4h-1.4
				c-0.3,0-0.4-0.1-0.4-0.4L41.1,14L41.1,14z"/>
			<path d="M59,8.9c0.8,0,1.5,0.7,1.5,1.5c0,0.8-0.7,1.5-1.5,1.5c-0.8,0-1.5-0.7-1.5-1.5C57.5,9.5,58.2,8.9,59,8.9z M57.9,14
				c0-0.3,0.1-0.4,0.4-0.4h1.4c0.3,0,0.4,0.1,0.4,0.4v9.5c0,0.3-0.1,0.4-0.4,0.4h-1.4c-0.3,0-0.4-0.1-0.4-0.4V14z"/>
			<path d="M70.4,23c-0.9,0.7-1.6,1.1-3.2,1.1c-2.6,0-4.8-1.8-4.8-5.4c0-3.4,2.3-5.4,5.1-5.4c1.3,0,2.3,0.4,2.9,1.1v-6
				c0-0.3,0.1-0.4,0.4-0.4h1.4c0.3,0,0.4,0.1,0.4,0.4v15c0,0.3-0.1,0.4-0.4,0.4h-1.1c-0.3,0-0.5-0.1-0.6-0.4L70.4,23z M70.4,17.9
				c0-0.7-0.1-1.1-0.6-1.6c-0.5-0.6-1.2-1-2.1-1c-1.7,0-2.9,1.3-2.9,3.5c0,2,1.1,3.4,2.9,3.4c1,0,1.8-0.4,2.2-1
				c0.4-0.5,0.5-1,0.5-1.7L70.4,17.9L70.4,17.9z"/>
			<path d="M83.2,22.9c-0.9,0.8-1.7,1.2-3.3,1.2c-2.8,0-5.2-1.8-5.2-5.4c0-3.4,2.4-5.4,5.3-5.4c1.6,0,2.6,0.6,3.2,1.2V14
				c0-0.3,0.1-0.4,0.4-0.4h1.4c0.3,0,0.4,0.1,0.4,0.4v9.5c0,0.3-0.1,0.4-0.4,0.4H84c-0.3,0-0.5-0.1-0.6-0.4L83.2,22.9z M83.2,17.8
				c0-0.7-0.2-1.1-0.6-1.6c-0.5-0.5-1.2-0.9-2.3-0.9c-1.8,0-3.2,1.3-3.2,3.5c0,2.1,1.3,3.4,3.2,3.4c1.1,0,2-0.6,2.4-1.1
				c0.4-0.5,0.5-0.9,0.5-1.7V17.8z"/>
			<path d="M87.9,8.5c0-0.3,0.1-0.4,0.4-0.4h1.4c0.3,0,0.4,0.1,0.4,0.4v6.6c0.8-1,2.1-1.8,3.7-1.8c3,0,4.5,2,4.5,5.4
				c0,3.1-1.9,5.4-5.1,5.4c-1.3,0-2.3-0.3-3.1-0.9v0.2c0,0.3-0.1,0.4-0.4,0.4h-1.4c-0.3,0-0.4-0.1-0.4-0.4V8.5z M90.2,20.4
				c0,0.5,0.3,0.8,0.6,1c0.7,0.5,1.5,0.7,2.2,0.7c2,0,3.1-1.5,3.1-3.5c0-2.3-1.1-3.4-2.6-3.4c-1.4,0-2.3,1-2.8,1.7
				c-0.3,0.5-0.4,0.9-0.4,1.7L90.2,20.4L90.2,20.4z"/>
			<path d="M100.3,8.5c0-0.3,0.1-0.4,0.4-0.4h1.4c0.3,0,0.4,0.1,0.4,0.4v12.6c0,0.8,0.4,1.1,0.9,1.1c0.5,0,0.7-0.2,0.9-0.2
				c0.1,0,0.2,0.1,0.2,0.3v1.3c0,0.2-0.1,0.3-0.2,0.3c-0.4,0.1-1,0.2-1.5,0.2c-1.2,0-2.5-0.7-2.5-2.5L100.3,8.5L100.3,8.5z"/>
			<path d="M115.5,21.7c0.1,0.1,0.1,0.2,0.1,0.2s0,0.2-0.1,0.3c-1.4,1.4-2.5,1.9-4.5,1.9c-2.8,0-5.4-1.9-5.4-5.4
				c0-3.3,2.4-5.4,5.3-5.4c3.5,0,5.2,2.7,5.2,5.3V19c0,0.3-0.1,0.4-0.4,0.4h-7.8c0.3,1.7,1.5,2.7,3.2,2.7c1.5,0,2.3-0.6,2.9-1.3
				c0.1-0.1,0.2-0.2,0.3-0.2c0.1,0,0.2,0,0.3,0.2L115.5,21.7z M113.7,17.6c-0.4-1.6-1.6-2.3-2.9-2.3c-1.4,0-2.7,0.9-3.1,2.3H113.7z"
				/>
		</g>
		<g>
			<path d="M116,14.1h0.2c0,0.2,0.1,0.2,0.3,0.2c0.2,0,0.2-0.1,0.2-0.2c0-0.1-0.1-0.1-0.3-0.2c-0.2-0.1-0.3-0.1-0.3-0.3
				c0-0.2,0.2-0.3,0.4-0.3c0.2,0,0.4,0.1,0.4,0.3h-0.2c0-0.1-0.1-0.2-0.2-0.2c-0.1,0-0.2,0.1-0.2,0.2c0,0.1,0.1,0.1,0.2,0.2
				c0.3,0.1,0.4,0.1,0.4,0.3c0,0.2-0.2,0.3-0.4,0.3C116.1,14.4,116,14.3,116,14.1z"/>
			<path d="M117,13.3h0.3l0.3,0.7c0.1,0.2,0.1,0.2,0.1,0.2h0c0,0,0-0.1,0.1-0.2l0.3-0.7h0.2v1.1H118l0-0.9h0c0,0,0,0.1-0.1,0.2
				l-0.3,0.7h-0.2l-0.3-0.7c-0.1-0.1-0.1-0.2-0.1-0.2h0v0.9H117L117,13.3L117,13.3z"/>
		</g>
	</g>
</g>
</svg>
