<?xml version="1.0" encoding="utf-8"?>
<!-- Generator: Adobe Illustrator 19.2.0, SVG Export Plug-In . SVG Version: 6.00 Build 0)  -->
<svg version="1.1" xmlns="http://www.w3.org/2000/svg" xmlns:xlink="http://www.w3.org/1999/xlink" x="0px" y="0px"
	 viewBox="0 0 100 100" style="enable-background:new 0 0 100 100;" xml:space="preserve" width="100px" height="100px">
<style type="text/css">
	.st0{fill:#FFFF00;}
	.st1{opacity:0.5;fill:#FBB03B;}
	.st2{fill:#BD1E13;}
</style>
<g id="Layer_2">
	<rect x="80.9" y="4.5" class="st0" width="19.1" height="90.9"/>
	<rect x="0" y="4.5" class="st0" width="19.1" height="90.9"/>

		<rect x="38.2" y="-38.2" transform="matrix(3.990212e-11 1 -1 3.990212e-11 61.8182 -38.1818)" class="st1" width="23.6" height="100"/>

		<rect x="38.2" y="38.2" transform="matrix(3.990212e-11 1 -1 3.990212e-11 138.1818 38.1818)" class="st1" width="23.6" height="100"/>
</g>
<g id="Layer_1">
	<g>
		<path class="st2" d="M99,5.5v34.9l-8.8,8.8L89.5,50l0.7,0.7l8.8,8.8v34.9H1V59.5l8.8-8.8l0.7-0.7l-0.7-0.7L1,40.5V5.5H99 M100,4.5
			H0v36.4L9.1,50L0,59.1v36.4h100V59.1L90.9,50l9.1-9.1V4.5L100,4.5z"/>
	</g>
	<g>
		<path class="st2" d="M89.9,14.6v16.2h-8.1h-2.4l1.7,1.7L98.6,50L81.1,67.5l-1.7,1.7h2.4h8.1v16.2H10.1V69.2h8.1h2.4l-1.7-1.7
			L1.4,50l17.5-17.5l1.7-1.7h-2.4h-8.1V14.6H89.9 M90.9,13.6H9.1v18.2h9.1L0,50l18.2,18.2H9.1v18.2h81.8V68.2h-9.1L100,50L81.8,31.8
			h9.1V13.6L90.9,13.6z"/>
	</g>
</g>
</svg>
