<svg version="1.1" xmlns="http://www.w3.org/2000/svg" xmlns:xlink="http://www.w3.org/1999/xlink" x="0px" y="0px"
   viewBox="0 0 200 200" style="enable-background:new 0 0 200 200;" xml:space="preserve"
   width="200px" height="200px" role="img">
  <g>
    <path style="fill:#BD1E13" d="M199,1v78.6l-19.7,19.7l-0.7,0.7l0.7,0.7l19.7,19.7V199H1v-78.6l19.7-19.7l0.7-0.7l-0.7-0.7L1,79.6V1H199
       M200,0H0v80l20,20L0,120v80h200v-80l-20-20l20-20V0L200,0z"/>
  </g>
  <g>
    <path style="fill:#BD1E13" d="M179,21v38h-19h-2.4l1.7,1.7l39.3,39.3l-39.3,39.3l-1.7,1.7h2.4h19v38H21v-38h19h2.4l-1.7-1.7L1.4,100
      l39.3-39.3l1.7-1.7H40H21V21H179 M180,20H20v40h20L0,100l40,40H20v40h160v-40h-20l40-40l-40-40h20V20L180,20z"/>
  </g>
</svg>
