<svg xmlns="http://www.w3.org/2000/svg" width="80" height="80" viewBox="0 0 80 80" role="img"><rect x="-0.394" y="0.042" width="81.588" height="80" style="fill:#e1d7cd"/><path d="M-19.76,79.129l-39.1-19.551V-79.208H0.077l39.781,39.78,0.53,0.53,0.53-.53L80.7-79.208h58.94V59.578l-39.1,19.551L40.918,19.512l-0.53-.531-0.53.53L-19.76,79.129m0.148,0.913,60-60,60,60,40-20v-140h-60l-40,40-40-40h-60v140l40,20h0Z" style="fill:#34302e"/><path d="M21.988,79.292l18.27-18.519L58.409,79.292H21.988M40.262,58.633L1.924,19.517,0.638,18.2V39.292H-79.056v-98.5h78.5v21.061l1.28-1.28L40.194-78.9l39.47,39.469,1.28,1.28v-21.06h78.5v98.5H80.138V18.214l-1.284,1.3L40.262,58.633M40.195-81.019L22.005-99.208H58.388L40.2-81.019M20.194,80.042h40L40.26,59.7,20.194,80.042h0ZM40.26,59.7L79.388,20.042v20h80.806v-100h-80v20l-40-40-40,40v-20h-80v100H1.388v-20L40.26,59.7h0ZM40.194-79.958l20-20h-40l20,20h0Z" style="fill:#34302e"/></svg>
