<svg xmlns="http://www.w3.org/2000/svg" width="80" height="80" viewBox="0 0 80 80"><rect x="-0.806" width="81.588" height="80" style="fill:#e1d7cd"/><path d="M100.148,0.913l39.1,19.551V159.25H80.311L40.53,119.47l-0.53-.53-0.53.53-39.78,39.78H-59.25V20.464L-20.148.913,39.47,60.53,40,61.061l0.53-.53L100.148,0.913M100,0L40,60-20,0-60,20V160H0l40-40,40,40h60V20L100,0h0Z" style="fill:#34302e"/><path d="M58.4,0.75L40.13,19.269,21.979,0.75H58.4M40.126,21.409L78.464,60.525l1.286,1.312V40.75h79.694v98.5h-78.5V118.189l-1.28,1.28-39.47,39.47L0.724,119.47l-1.28-1.28V139.25h-78.5V40.75H0.25V61.828l1.284-1.3L40.126,21.409m0.067,139.652L58.383,179.25H22l18.189-18.189M60.194,0h-40L40.128,20.339,60.194,0h0ZM40.128,20.339L1,60V40H-79.806V140h80V120l40,40,40-40v20h80V40H79V60L40.128,20.339h0ZM40.194,160l-20,20h40l-20-20h0Z" style="fill:#34302e"/></svg>
