<svg version="1.1" xmlns="http://www.w3.org/2000/svg" xmlns:xlink="http://www.w3.org/1999/xlink" x="0px" y="0px"
  viewBox="0 0 200 60" xml:space="preserve" role="img" aria-labelledby="title"
  style="height:100%;width:auto;max-width:100%;">
  <title>NCR Edinburgh</title>
<path d="M121.805,32.274c0,0-0.401-1.472-0.401-2.563V12.642h6.836v32.877l-21.886-18.123c-1.171-0.995-1.864-2.106-1.864-2.106s0.347,1.225,0.347,2.285l-0.006,17.202h-6.84V12.029l21.685,17.759C120.839,30.773,121.805,32.274,121.805,32.274"/>
<path d="M183.702,12.645c10.833,0,13.607,4.272,13.607,10.412c0,4.45-3.277,8.81-9.886,9.326l-0.724,0.035c0,0,0.639,0.113,1.307,0.756L200,44.776h-9.268l-16.744-17.001h8.337c7.468,0,7.685-3.935,7.736-4.927c0.14-2.554-0.677-4.596-6.372-4.596h-9.533v26.524h-7.104V12.645H183.702z"/>
<path d="M131.315,29.169c0-13.461,11.267-16.998,20.738-16.998c3.792,0,7.15,0.34,10.684,1.089l0.01,6.826c-2.032-0.625-6.113-1.997-10.693-1.997c-8.979,0-13.339,3.488-13.339,11.079c0,6.218,4.7,10.179,13.339,10.179c4.58,0,9.166-1.09,11.387-1.909l-0.013,6.622c-3.53,0.745-7.582,1.205-11.374,1.205C141.938,45.266,131.315,40.349,131.315,29.169"/>
<path d="M54.387,13.471l6.667,6.279c-0.182,0.081-0.392,0.181-0.639,0.305c-0.386,0.201-0.846,0.47-1.397,0.852c-1.099,0.755-2.531,1.961-4.363,3.938l-13.03,13.789c-2.233,2.36-4.502,4.23-6.612,5.219l-6.671-6.281c0.182-0.085,0.392-0.179,0.635-0.309c0.386-0.197,0.846-0.47,1.397-0.846c1.096-0.762,2.532-1.961,4.366-3.941l13.027-13.766C50.001,16.353,52.274,14.46,54.387,13.471"/>
<path d="M28.579,46.803c2.947,0,5.656-0.584,7.494-1.537c0.84-0.438,2.039-1.192,3.07-1.996c1.027-0.801,2.483-2.049,3.714-3.358l13.043-13.75c3.29-3.465,5.267-4.535,6.467-4.956l6.69,6.337C67.661,29.036,51.01,46.77,51.01,46.77c-1.135,1.226-2.331,2.409-3.144,3.154c-0.781,0.72-2.117,1.793-2.807,2.298c-3.916,2.869-9.147,5.196-16.191,5.196C12.907,57.418,0,44.427,0,29.468C0,10.911,14.499,0.143,27.704,0.143c4.048-0.12,7.296,0.561,9.864,1.433c2.373,0.807,4.165,1.783,5.465,2.447c-1.537,0.985-3.024,2.328-5.475,4.946l-2.678,2.875c-0.616-0.237-3.348-1.19-6.855-1.083c-8.473,0.25-17.74,7.118-17.406,18.385C10.93,39.681,19.614,46.803,28.579,46.803"/>
<path d="M53.24,12.152c-0.843,0.441-2.039,1.193-3.076,1.997c-1.024,0.801-2.479,2.049-3.714,3.355l-13.04,13.753c-3.29,3.465-5.268,4.531-6.467,4.953l-6.69-6.331c1.4-1.497,18.048-19.228,18.048-19.228c1.138-1.226,2.331-2.409,3.144-3.157c0.781-0.72,2.117-1.789,2.813-2.298C48.167,2.327,53.405,0,60.449,0C76.409,0,89.31,12.992,89.31,27.947c0,18.563-14.496,29.325-27.704,29.325c-4.045,0.123-7.296-0.558-9.86-1.437c-2.379-0.804-4.178-1.786-5.475-2.447c1.624-1.096,3.014-2.298,5.484-4.937l2.674-2.875c0.616,0.233,3.349,1.187,6.859,1.083c8.47-0.253,17.74-7.128,17.406-18.392C78.38,17.737,69.69,10.612,60.73,10.612C57.778,10.612,55.081,11.199,53.24,12.152"/>
</svg>
