<svg xmlns="http://www.w3.org/2000/svg" viewBox="0 0 1500 516.77" role="img" aria-labelledby="title" style="height:100%;width:auto;max-width:100%;"><title>Redfin</title><path d="M766.98,153.229c-22.235-14.668-52.178-20.133-92.063-20.137l-75.431-.039V382.79l77.009.042c27.417,0,50.987-3.523,70.693-11.431,19.792-8.077,35.271-20.888,45.768-39.359,10.486-18.452,15.974-42.513,15.974-73.095,0-26.443-3.325-48.068-10.231-65.5C791.8,176,781.244,162.76,766.98,153.229ZM746.787,302.141c-3.721,12.461-9.667,21.962-18.907,28.577-10.157,7.169-25.486,11.069-44.428,11.069h-27l-.04-167.633,22.662.033c22.31.072,38.828,3.638,49.944,11.808,8.126,6.055,13.78,14.512,17.484,26.049,3.692,11.556,5.333,26.121,5.333,44.161C751.84,274.264,750.5,289.656,746.787,302.141Z" style="fill:#fff"/><polygon points="844.691 382.79 901.727 382.79 901.727 276.36 967.654 276.36 967.654 235.673 901.727 235.673 901.727 174.17 1003.569 174.187 1003.569 133.053 844.691 133.053 844.691 382.79" style="fill:#fff"/><path d="M1039.67,382.79h57.114V133.053H1039.67S1039.247,382.79,1039.67,382.79Z" style="fill:#fff"/><polygon points="1347.752 133.053 1290.42 133.053 1290.42 276.36 1184.296 133.053 1138.571 133.053 1138.571 382.79 1195.942 382.79 1195.942 235.711 1300.909 382.79 1347.752 382.79 1347.752 133.053" style="fill:#fff"/><path d="M384.016,392.312c-4.795-1.921-9.6-5.585-22.513-27.314L335.79,322.36l-30.31-50.26-2.572-4.269c1.487-.423,2.942-.9,4.38-1.388,34.8-11.929,55.106-43.777,55.106-89.221a77.561,77.561,0,0,0-26.423-58.729,86.4,86.4,0,0,0-7.937-6.068C304.885,97.152,273.7,91.462,232.172,91.458l-78.544-.04h-.037v.019h-1.157c-5.1-.065-5.588,2.873-3.583,5.537,1.8,2.37,3.852,5.529,4.74,13.554V361.271c-.885,10.207-2.964,13.459-4.74,15.811-2.028,2.652-1.134,5.687,3.973,5.633h58.159V276.354h26.434l18.566,31.552,23.352,39.689,11.351,19.285c14.425,24.279,27.044,37.727,52.17,40.6a89.788,89.788,0,0,0,11.025.7h3.887c9.034,0,17.859-3.625,23.35-5.963.747-.271,1.472-.561,2.191-.881C389.908,398.416,388.083,393.935,384.016,392.312ZM247.935,235.673H210.982V133.079h36.952c18.288,0,32.231,2.367,42.677,11.858a36.774,36.774,0,0,1,8.957,13.4c2.566,6.458,3.858,14.237,3.858,23.6C303.427,195.576,302.175,235.673,247.935,235.673Z" style="fill:#fff"/><polygon points="458.808 276.401 524.878 276.401 524.878 235.714 458.808 235.714 458.808 174.052 560.607 174.052 560.607 133.096 401.657 133.096 401.657 382.832 560.638 382.832 560.638 341.416 458.808 341.416 458.808 276.401" style="fill:#fff"/></svg>
