<svg xmlns="http://www.w3.org/2000/svg" viewBox="0 15 471.04 14" role="img" aria-labelledby="title" style="height:100%;width:auto;max-width:100%;"><title>Five Thirty Eight</title><polygon points="47.48 0.6 72.06 0.6 72.06 8.39 56.41 8.39 56.41 18.86 70.92 18.86 70.92 26.66 56.41 26.66 56.41 43.27 47.48 43.27 47.48 0.6"/><path d="M77.46,36h4.66V18.35H77.46V11.13h13V36h4.44v7.22H77.46V36ZM82.13,0.6h8.36v8H82.13v-8Z"/><polygon points="99.76 27.22 99.76 11.13 108.12 11.13 108.12 25.12 111.88 35.59 112.67 35.59 116.43 25.12 116.43 11.13 124.79 11.13 124.79 27.22 118.13 43.27 106.42 43.27 99.76 27.22"/><path d="M156.64,43.27h-13c-8.19,0-12.12-3.47-12.12-11.49V22.62c0-7.57,3.87-12.06,12.57-12.06,9.33,0,12.57,4.27,12.57,13.2V30.3H139.86v2c0,2.62,1.31,3.7,3.75,3.7h13v7.22ZM139.86,24.21h8.42V22c0-2.62-1.14-4.84-4.21-4.84-2.79,0-4.21,1.59-4.21,4.84v2.16Z"/><polygon points="169.73 8.39 160.06 8.39 160.06 0.6 188.33 0.6 188.33 8.39 178.66 8.39 178.66 43.27 169.73 43.27 169.73 8.39"/><path d="M202.09,43.27h-8.36V0.6h8.36V15.22a8.3,8.3,0,0,1,7.74-4.66c6.26,0,9.16,3.13,9.16,10.81v21.9h-8.36V21.65c0-3.13-1.37-4.44-4.27-4.44s-4.27,1.31-4.27,4.44V43.27Z"/><path d="M225.81,36h4.66V18.35h-4.66V11.13h13V36h4.44v7.22H225.81V36ZM230.48,0.6h8.36v8h-8.36v-8Z"/><path d="M250.1,43.27V11.13h8.08v4.15a7.63,7.63,0,0,1,7.22-4.15H268v7.23h-5.75c-2.84,0-3.75,1.19-3.75,4.15V43.27H250.1Z"/><path d="M293.45,43.27h-6.09c-7.11,0-10.81-3.36-10.81-10.81V18.35h-4.89V11.13h4.89V2.88h8.36v8.25h8.53v7.23h-8.53V32.74c0,2.22,1.14,3.3,3.87,3.3h4.66v7.23Z"/><polygon points="303.46 54.36 308.07 44.86 300.11 27.22 300.11 11.13 308.47 11.13 308.47 25.12 312.22 35.3 313.02 35.3 316.77 25.12 316.77 11.13 325.13 11.13 325.13 27.22 312.9 54.36 303.46 54.36"/><polygon points="333.38 0.6 358.24 0.6 358.24 8.39 342.31 8.39 342.31 17.72 356.82 17.72 356.82 25.52 342.31 25.52 342.31 35.47 358.24 35.47 358.24 43.27 333.38 43.27 333.38 0.6"/><path d="M364.61,36h4.66V18.35h-4.66V11.13h13V36h4.44v7.22H364.61V36ZM369.28,0.6h8.36v8h-8.36v-8Z"/><path d="M384.35,49.52V47.82h17c2,0,2.56-.4,2.56-1.48V46c0-1.08-.57-1.48-2.56-1.48H387.76v-3l4.61-6.94c-5.29-1.48-7.45-5.23-7.45-10.81v-1.2c0-7.56,3.75-12.06,13.31-12.06a22.37,22.37,0,0,1,5.92.74l3.64-5.46,5.58,3.47-3.81,5.75a12.91,12.91,0,0,1,2,7.56v1.2c0,7-3.47,11.15-12.17,11.49l-2,3h6.26c5.92,0,8.82,2.9,8.82,8v0.11c0,5.06-2.9,8-8.82,8h-13c-4.32,0-6.26-1.65-6.26-4.84m18.94-25.14V22c0-3.3-1.42-4.89-5.06-4.89s-5.06,1.59-5.06,4.89v2.33c0,3.3,1.42,4.89,5.06,4.89s5.06-1.59,5.06-4.89"/><path d="M427,43.27H418.6V0.6H427V15.22a8.3,8.3,0,0,1,7.74-4.66c6.26,0,9.16,3.13,9.16,10.81v21.9h-8.36V21.65c0-3.13-1.37-4.44-4.27-4.44S427,18.52,427,21.65V43.27Z"/><path d="M471,43.27H465c-7.11,0-10.81-3.36-10.81-10.81V18.35h-4.89V11.13h4.89V2.88h8.36v8.25H471v7.23h-8.53V32.74c0,2.22,1.14,3.3,3.87,3.3H471v7.23Z"/><path fill="#555" d="M25.8,8.59L17,17.41a1.17,1.17,0,0,1-1.59,0L6.57,8.59l-4,2v11c2.72,2.76,9.84,9.6,13.6,9.6s10.87-6.84,13.6-9.6v-11Z"/><path d="M31.65,0.09a1.17,1.17,0,0,0-1.27.25L16.18,14.53,2,0.36a1.17,1.17,0,0,0-2,.83v21c0,4.57,1.15,7.26,4.57,10.68L15.12,43.4a1.51,1.51,0,0,0,2.12,0L27.8,32.85c3.42-3.42,4.57-6.11,4.57-10.68v-21A1.17,1.17,0,0,0,31.65.09ZM29.78,22.17C29.78,26,28.89,28.1,26,31l-6.66,6.67L18.62,37h0l0,0-0.89-.89a2.16,2.16,0,0,0-3,0L13.78,37l0,0h0l-0.69.69L6.4,31c-2.92-2.92-3.81-5-3.81-8.85V10.54l4-2,8.82,8.82a1.17,1.17,0,0,0,1.59,0L25.8,8.59l4,2V22.17ZM8,22.66L2.59,21.56a63.27,63.27,0,0,0,8.74,7.54V25.95C11.33,24,11,23.39,8,22.66ZM21,25.95v3.16a63.3,63.3,0,0,0,8.74-7.55l-5.36,1.09C21.32,23.39,21,24,21,25.95Z"/></svg>
